{
    "asset" : {
        "generator" : "Khronos glTF Blender I/O v1.3.48",
        "version" : "2.0"
    },
    "scene" : 0,
    "scenes" : [
        {
            "name" : "Scene",
            "nodes" : [
                0,
                1,
                2,
                3
            ]
        }
    ],
    "nodes" : [
        {
            "mesh" : 0,
            "name" : "Cube"
        },
        {
            "name" : "Camera",
            "rotation" : [
                -0.5276502966880798,
                -0.027341561391949654,
                0.04462539404630661,
                -0.8478479385375977
            ],
            "translation" : [
                2.5104141235351562,
                13.984423637390137,
                19.62462615966797
            ]
        },
        {
            "mesh" : 1,
            "name" : "Icosphere",
            "scale" : [
                0.4406479597091675,
                0.4406479597091675,
                0.4406479597091675
            ],
            "translation" : [
                -0.0058080703020095825,
                7.543390274047852,
                0.9545072317123413
            ]
        },
        {
            "mesh" : 2,
            "name" : "Cube.001",
            "scale" : [
                -1,
                1,
                1
            ],
            "translation" : [
                0.04901766777038574,
                0.021864324808120728,
                0.005900859832763672
            ]
        }
    ],
    "materials" : [
        {
            "doubleSided" : true,
            "emissiveFactor" : [
                0,
                0,
                0
            ],
            "name" : "Material.001",
            "pbrMetallicRoughness" : {
                "metallicFactor" : 0,
                "roughnessFactor" : 0.5
            }
        },
        {
            "doubleSided" : true,
            "emissiveFactor" : [
                0,
                0,
                0
            ],
            "name" : "Material.002",
            "pbrMetallicRoughness" : {
                "baseColorFactor" : [
                    0.8000000715255737,
                    0,
                    0.040336724370718,
                    1
                ],
                "metallicFactor" : 0,
                "roughnessFactor" : 0.5
            }
        }
    ],
    "meshes" : [
        {
            "name" : "Cube.001",
            "primitives" : [
                {
                    "attributes" : {
                        "POSITION" : 0,
                        "NORMAL" : 1,
                        "TEXCOORD_0" : 2,
                        "COLOR_0" : 3
                    },
                    "indices" : 4,
                    "material" : 0
                }
            ]
        },
        {
            "name" : "Icosphere.010",
            "primitives" : [
                {
                    "attributes" : {
                        "POSITION" : 5,
                        "NORMAL" : 6,
                        "TEXCOORD_0" : 7
                    },
                    "indices" : 8,
                    "material" : 1
                }
            ]
        },
        {
            "name" : "Cube.002",
            "primitives" : [
                {
                    "attributes" : {
                        "POSITION" : 9,
                        "NORMAL" : 10,
                        "TEXCOORD_0" : 11,
                        "COLOR_0" : 12
                    },
                    "indices" : 4,
                    "material" : 0
                }
            ]
        }
    ],
    "accessors" : [
        {
            "bufferView" : 0,
            "componentType" : 5126,
            "count" : 124,
            "max" : [
                3.0304882526397705,
                8.815378189086914,
                1.172492504119873
            ],
            "min" : [
                0,
                -0.029010772705078125,
                -0.8581056594848633
            ],
            "type" : "VEC3"
        },
        {
            "bufferView" : 1,
            "componentType" : 5126,
            "count" : 124,
            "type" : "VEC3"
        },
        {
            "bufferView" : 2,
            "componentType" : 5126,
            "count" : 124,
            "type" : "VEC2"
        },
        {
            "bufferView" : 3,
            "componentType" : 5126,
            "count" : 124,
            "type" : "VEC4"
        },
        {
            "bufferView" : 4,
            "componentType" : 5123,
            "count" : 573,
            "type" : "SCALAR"
        },
        {
            "bufferView" : 5,
            "componentType" : 5126,
            "count" : 63,
            "max" : [
                0.9510578513145447,
                1,
                0.9999999403953552
            ],
            "min" : [
                -0.9510578513145447,
                -1,
                -0.9999999403953552
            ],
            "type" : "VEC3"
        },
        {
            "bufferView" : 6,
            "componentType" : 5126,
            "count" : 63,
            "type" : "VEC3"
        },
        {
            "bufferView" : 7,
            "componentType" : 5126,
            "count" : 63,
            "type" : "VEC2"
        },
        {
            "bufferView" : 8,
            "componentType" : 5123,
            "count" : 240,
            "type" : "SCALAR"
        },
        {
            "bufferView" : 9,
            "componentType" : 5126,
            "count" : 124,
            "max" : [
                3.0304882526397705,
                8.815378189086914,
                1.172492504119873
            ],
            "min" : [
                0,
                -0.029010772705078125,
                -0.8581056594848633
            ],
            "type" : "VEC3"
        },
        {
            "bufferView" : 10,
            "componentType" : 5126,
            "count" : 124,
            "type" : "VEC3"
        },
        {
            "bufferView" : 11,
            "componentType" : 5126,
            "count" : 124,
            "type" : "VEC2"
        },
        {
            "bufferView" : 12,
            "componentType" : 5126,
            "count" : 124,
            "type" : "VEC4"
        }
    ],
    "bufferViews" : [
        {
            "buffer" : 0,
            "byteLength" : 1488,
            "byteOffset" : 0
        },
        {
            "buffer" : 0,
            "byteLength" : 1488,
            "byteOffset" : 1488
        },
        {
            "buffer" : 0,
            "byteLength" : 992,
            "byteOffset" : 2976
        },
        {
            "buffer" : 0,
            "byteLength" : 1984,
            "byteOffset" : 3968
        },
        {
            "buffer" : 0,
            "byteLength" : 1146,
            "byteOffset" : 5952
        },
        {
            "buffer" : 0,
            "byteLength" : 756,
            "byteOffset" : 7100
        },
        {
            "buffer" : 0,
            "byteLength" : 756,
            "byteOffset" : 7856
        },
        {
            "buffer" : 0,
            "byteLength" : 504,
            "byteOffset" : 8612
        },
        {
            "buffer" : 0,
            "byteLength" : 480,
            "byteOffset" : 9116
        },
        {
            "buffer" : 0,
            "byteLength" : 1488,
            "byteOffset" : 9596
        },
        {
            "buffer" : 0,
            "byteLength" : 1488,
            "byteOffset" : 11084
        },
        {
            "buffer" : 0,
            "byteLength" : 992,
            "byteOffset" : 12572
        },
        {
            "buffer" : 0,
            "byteLength" : 1984,
            "byteOffset" : 13564
        }
    ],
    "buffers" : [
        {
            "byteLength" : 15548,
            "uri" : "data:application/octet-stream;base64,"
        }
    ]
}
